<svg width="150" height="127" viewBox="0 0 150 127" fill="none" xmlns="http://www.w3.org/2000/svg">
<path fill-rule="evenodd" clip-rule="evenodd" d="M75.1883 59.9834C58.8199 59.9747 45.0686 47.7776 45 30.0092C45.0686 12.2065 59.5322 0 75.2233 0C93.1629 0 104.931 16.0862 104.931 30.0085C104.931 34.7471 104.931 34.9354 103.352 39.4762L67.9619 39.4937C67.1205 39.4849 66.4425 38.5924 66.4425 37.7509C66.4425 36.9095 67.138 36.4373 67.9706 36.4373L75.1722 36.3687V35.5448H63.3519C62.5105 35.5448 61.8325 34.8668 61.8325 34.0254C61.8325 33.1839 62.528 32.5234 63.3607 32.5234H75.1715L75.1628 31.5192H61.8755C61.0341 31.5105 60.3561 30.8325 60.3561 29.991C60.3561 29.1496 61.0429 28.4716 61.8755 28.4716H75.1715V27.4587H64.9224C64.081 27.4499 63.403 26.7719 63.403 25.9305C63.403 25.0891 64.0985 24.4541 64.9224 24.4709H82.8365V23.3995H76.6304C75.8233 23.3907 75.1628 22.7127 75.1628 21.8713C75.1628 21.0298 75.9437 20.3862 76.6304 20.3862L82.7679 20.3687C87.3261 20.3687 90.3985 24.4716 90.3985 27.4587H92.8448C92.2354 19.7331 85.3258 12.2052 75.2226 12.2139C63.4205 12.2065 57.4545 21.9574 57.4888 30.0092C57.4545 39.4944 65.1545 47.5798 74.8197 47.7776C74.8197 44.7992 77.8929 40.6956 82.4504 40.6956L88.5879 40.7131C89.2746 40.7131 90.0555 41.3568 90.0555 42.1982C90.0555 43.0397 89.3943 43.7177 88.5879 43.7264H82.3818V44.7992H100.433C101.257 44.7817 101.952 45.4174 101.952 46.2588C101.952 47.1002 101.274 47.7782 100.433 47.787H90.0467V48.7999H103.481C104.313 48.7999 105 49.4779 105 50.3194C105 51.1608 104.322 51.8388 103.481 51.8475H90.0555L90.0467 52.8517H101.995C102.828 52.8517 103.524 53.5129 103.524 54.3537C103.524 55.1951 102.846 55.8731 102.004 55.8731H90.0467V56.8343L97.3855 56.9029C98.2182 56.9029 98.9136 57.375 98.9136 58.2165C98.9136 59.0579 98.2357 59.9505 97.3942 59.9592L75.1883 59.9834Z" fill="#00ADB5"/>
<path d="M4.2159 97.7467V110.629H0V81.5075H4.2159V93.4527C5.25686 92.9322 6.493 92.6719 7.92432 92.6719C8.4448 92.6719 9.70697 92.7891 11.7108 93.0233C14.5214 93.3616 16.4212 93.5307 17.4101 93.5307C18.9195 93.5307 20.2337 93.2835 21.3527 92.7891V81.5075H25.6077V110.629H21.3527V97.0831C20.2337 97.5775 18.9195 97.8248 17.4101 97.8248C16.4212 97.8248 14.5214 97.6556 11.7108 97.3173C9.70697 97.0831 8.4448 96.966 7.92432 96.966C6.493 96.966 5.25686 97.2262 4.2159 97.7467ZM39.4128 98.9568V106.374H57.3694V110.629H35.1578V81.5075H55.6518V85.8015H39.4128V94.6238C40.2195 94.1553 41.1173 93.843 42.1063 93.6869C42.8349 93.5568 43.7718 93.4917 44.9168 93.4917H51.2797V97.8248H44.9168C43.8499 97.8248 42.913 97.8898 42.1063 98.02C41.1173 98.2021 40.2195 98.5144 39.4128 98.9568ZM74.2583 84.5914L72.6578 81H77.3422L91.3561 110.629H86.5937L84.6809 106.374H75.8198C74.1542 106.374 72.6578 106.53 71.3306 106.842C70.1595 107.128 69.1836 107.506 68.4029 107.974C67.7002 108.391 67.2318 108.82 66.9976 109.262L66.2559 110.629H61.6497L74.2583 84.5914ZM77.3812 102.08H82.7682L76.4053 89.7832L69.9643 103.719C70.5369 103.225 71.4087 102.834 72.5798 102.548C73.907 102.236 75.5075 102.08 77.3812 102.08ZM118.199 110.629H97.7834V81.5075H102.038V106.374H118.199V110.629ZM128.491 85.7625V95.4435C129.298 94.9751 130.196 94.6628 131.185 94.5067C131.913 94.3765 132.85 94.3115 133.995 94.3115H139.538C141.074 94.3115 142.271 93.9602 143.13 93.2575C144.04 92.5028 144.496 91.3707 144.496 89.8613C144.496 88.43 144.014 87.363 143.052 86.6603C142.219 86.0617 141.048 85.7625 139.538 85.7625H128.491ZM140.944 106.022L137.391 98.5665H133.995C132.928 98.5665 131.991 98.6315 131.185 98.7617C130.196 98.9438 129.298 99.2561 128.491 99.6985V110.629H124.236V81.5075H139.538C141.334 81.5075 142.921 81.8458 144.301 82.5224C145.68 83.1991 146.747 84.162 147.502 85.4111C148.308 86.7384 148.712 88.2998 148.712 90.0955C148.712 92.2816 148.126 94.0773 146.955 95.4826C145.784 96.8879 144.132 97.8638 141.998 98.4103L144.262 103.056C144.912 104.019 145.42 104.695 145.784 105.086C146.227 105.58 146.649 105.912 147.053 106.081C147.456 106.25 147.983 106.335 148.634 106.335H149.063L150 106.296V110.629C148.491 110.629 147.372 110.577 146.643 110.473C145.42 110.264 144.379 109.861 143.52 109.262C142.505 108.534 141.646 107.454 140.944 106.022Z" fill="#222831"/>
<path d="M20.5099 120.317H18.2139V125.87H17.2885V120.317H14.9663V119.357H20.5099V120.317ZM22.675 122.989V125.87H21.7321V119.357H22.675V122.029C22.9078 121.912 23.1842 121.854 23.5043 121.854C23.6207 121.854 23.903 121.88 24.3512 121.933C24.9797 122.008 25.4046 122.046 25.6257 122.046C25.9633 122.046 26.2572 121.991 26.5075 121.88V119.357H27.4591V125.87H26.5075V122.84C26.2572 122.951 25.9633 123.006 25.6257 123.006C25.4046 123.006 24.9797 122.969 24.3512 122.893C23.903 122.84 23.6207 122.814 23.5043 122.814C23.1842 122.814 22.9078 122.872 22.675 122.989ZM30.3313 123.26V124.918H34.3471V125.87H29.3797V119.357H33.963V120.317H30.3313V122.29C30.5117 122.186 30.7125 122.116 30.9336 122.081C31.0966 122.052 31.3061 122.037 31.5622 122.037H32.9852V123.006H31.5622C31.3236 123.006 31.1141 123.021 30.9336 123.05C30.7125 123.091 30.5117 123.161 30.3313 123.26ZM43.8192 120.195L43.2081 120.911C42.9695 120.667 42.6843 120.475 42.3526 120.335C42.0208 120.195 41.6716 120.125 41.305 120.125C40.8277 120.125 40.3927 120.233 39.9998 120.448C39.607 120.664 39.3 120.958 39.0788 121.33C38.8518 121.72 38.7383 122.154 38.7383 122.631C38.7383 123.085 38.8606 123.504 39.105 123.888C39.3378 124.249 39.6506 124.536 40.0435 124.748C40.4363 124.96 40.8597 125.067 41.3137 125.067C41.7328 125.067 42.1227 124.976 42.4835 124.796C42.8444 124.616 43.1441 124.365 43.3827 124.045L43.9677 124.84C43.6359 125.212 43.2387 125.502 42.776 125.708C42.3133 125.915 41.823 126.018 41.305 126.018C40.659 126.018 40.0653 125.861 39.524 125.547C38.9944 125.244 38.5783 124.828 38.2756 124.298C37.9614 123.757 37.8042 123.163 37.8042 122.517C37.8042 121.895 37.9701 121.321 38.3018 120.798C38.6161 120.297 39.0424 119.9 39.5808 119.606C40.1191 119.312 40.6968 119.165 41.3137 119.165C41.7968 119.165 42.2566 119.258 42.6931 119.444C43.1179 119.619 43.4933 119.869 43.8192 120.195ZM47.3986 120.047L47.0406 119.244H48.0883L51.2224 125.87H50.1573L49.7295 124.918H47.7478C47.3753 124.918 47.0406 124.953 46.7438 125.023C46.4819 125.087 46.2637 125.171 46.0891 125.276C45.9319 125.369 45.8272 125.465 45.7748 125.564L45.6089 125.87H44.5788L47.3986 120.047ZM48.097 123.958H49.3017L47.8787 121.208L46.4383 124.325C46.5663 124.214 46.7613 124.127 47.0232 124.063C47.32 123.993 47.6779 123.958 48.097 123.958ZM57.2898 120.317H54.9938V125.87H54.0684V120.317H51.7462V119.357H57.2898V120.317ZM60.5461 120.047L60.1882 119.244H61.2358L64.3699 125.87H63.3048L62.877 124.918H60.8953C60.5228 124.918 60.1882 124.953 59.8913 125.023C59.6294 125.087 59.4112 125.171 59.2366 125.276C59.0794 125.369 58.9747 125.465 58.9223 125.564L58.7564 125.87H57.7263L60.5461 120.047ZM61.2445 123.958H62.4492L61.0262 121.208L59.5858 124.325C59.7138 124.214 59.9088 124.127 60.1707 124.063C60.4675 123.993 60.8255 123.958 61.2445 123.958ZM70.1579 125.87H65.5921V119.357H66.5437V124.918H70.1579V125.87ZM73.4492 122.221C73.8391 121.813 74.1912 121.359 74.5055 120.859C74.8198 120.358 75.07 119.858 75.2563 119.357H76.3475C76.0507 120.05 75.6899 120.713 75.265 121.348C74.8809 121.924 74.4327 122.491 73.9206 123.05V125.87H72.9777V123.05C72.4656 122.491 72.0174 121.924 71.6333 121.348C71.2084 120.713 70.8476 120.05 70.5508 119.357H71.642C71.8283 119.858 72.0785 120.358 72.3928 120.859C72.7071 121.359 73.0592 121.813 73.4492 122.221ZM82.5895 123.888C82.5895 124.313 82.4615 124.691 82.2054 125.023C81.9552 125.337 81.6103 125.582 81.1709 125.756C80.7315 125.931 80.2353 126.018 79.6824 126.018C79.1761 126.018 78.6843 125.9 78.207 125.665C77.7298 125.429 77.3282 125.102 77.0023 124.683L77.6832 124.045C78.2478 124.726 78.9142 125.067 79.6824 125.067C80.02 125.067 80.3285 125.026 80.6078 124.944C80.9163 124.851 81.1549 124.72 81.3237 124.552C81.5157 124.365 81.6118 124.144 81.6118 123.888C81.6118 123.58 81.5157 123.347 81.3237 123.19C81.1607 123.056 80.9192 122.969 80.5991 122.928C80.4128 122.904 80.1073 122.893 79.6824 122.893C78.9025 122.893 78.3074 122.75 77.8971 122.465C77.4868 122.18 77.2817 121.761 77.2817 121.208C77.2817 120.859 77.385 120.527 77.5916 120.213C77.7982 119.898 78.0819 119.648 78.4428 119.462C78.8152 119.264 79.2285 119.165 79.6824 119.165C80.1946 119.165 80.6573 119.244 81.0705 119.401C81.5128 119.57 81.9231 119.834 82.3015 120.195L81.7078 120.894C81.3528 120.608 81.0298 120.409 80.7388 120.296C80.4478 120.182 80.0957 120.125 79.6824 120.125C79.4438 120.125 79.2212 120.175 79.0146 120.274C78.808 120.373 78.6435 120.505 78.5213 120.671C78.3991 120.837 78.338 121.013 78.338 121.199C78.338 121.7 78.8007 121.95 79.7261 121.95C80.4652 121.95 81.0501 122.026 81.4808 122.177C81.8882 122.322 82.1792 122.544 82.3538 122.84C82.511 123.102 82.5895 123.452 82.5895 123.888ZM88.8316 120.317H86.5355V125.87H85.6102V120.317H83.288V119.357H88.8316V120.317ZM98.0505 122.57C98.0505 122.104 97.9312 121.682 97.6926 121.304C97.4656 120.937 97.1557 120.649 96.7628 120.44C96.37 120.23 95.9437 120.125 95.4839 120.125C95.0066 120.125 94.5716 120.233 94.1787 120.448C93.7859 120.664 93.4789 120.958 93.2577 121.33C93.0307 121.72 92.9172 122.154 92.9172 122.631C92.9172 123.085 93.0395 123.504 93.2839 123.888C93.5167 124.249 93.8295 124.536 94.2224 124.748C94.6152 124.96 95.0401 125.067 95.497 125.067C95.9538 125.067 96.3787 124.956 96.7716 124.735C97.1644 124.514 97.4743 124.217 97.7013 123.844C97.9341 123.454 98.0505 123.03 98.0505 122.57ZM98.9934 122.622C98.9934 123.251 98.8304 123.83 98.5045 124.36C98.1902 124.866 97.7639 125.269 97.2255 125.569C96.6872 125.868 96.1066 126.018 95.4839 126.018C94.8379 126.018 94.2442 125.861 93.7029 125.547C93.1733 125.244 92.7572 124.828 92.4545 124.298C92.1403 123.757 91.9831 123.163 91.9831 122.517C91.9831 121.895 92.149 121.321 92.4807 120.798C92.795 120.297 93.2213 119.9 93.7597 119.606C94.298 119.312 94.8757 119.165 95.4926 119.165C96.127 119.165 96.7148 119.319 97.2561 119.628C97.7857 119.93 98.2048 120.341 98.5132 120.859C98.8333 121.4 98.9934 121.988 98.9934 122.622ZM101.429 123.26V125.87H100.477V119.357H105.061V120.317H101.429V122.29C101.609 122.186 101.81 122.116 102.031 122.081C102.194 122.052 102.404 122.037 102.66 122.037H104.083V123.006H102.66C102.421 123.006 102.212 123.021 102.031 123.05C101.81 123.091 101.609 123.161 101.429 123.26ZM114.489 120.195L113.878 120.911C113.64 120.667 113.354 120.475 113.023 120.335C112.691 120.195 112.342 120.125 111.975 120.125C111.498 120.125 111.063 120.233 110.67 120.448C110.277 120.664 109.97 120.958 109.749 121.33C109.522 121.72 109.408 122.154 109.408 122.631C109.408 123.085 109.531 123.504 109.775 123.888C110.008 124.249 110.321 124.536 110.714 124.748C111.106 124.96 111.53 125.067 111.984 125.067C112.403 125.067 112.793 124.976 113.154 124.796C113.514 124.616 113.814 124.365 114.053 124.045L114.638 124.84C114.306 125.212 113.909 125.502 113.446 125.708C112.983 125.915 112.493 126.018 111.975 126.018C111.329 126.018 110.735 125.861 110.194 125.547C109.664 125.244 109.248 124.828 108.946 124.298C108.631 123.757 108.474 123.163 108.474 122.517C108.474 121.895 108.64 121.321 108.972 120.798C109.286 120.297 109.712 119.9 110.251 119.606C110.789 119.312 111.367 119.165 111.984 119.165C112.467 119.165 112.927 119.258 113.363 119.444C113.788 119.619 114.163 119.869 114.489 120.195ZM118.069 120.047L117.711 119.244H118.758L121.892 125.87H120.827L120.4 124.918H118.418C118.045 124.918 117.711 124.953 117.414 125.023C117.152 125.087 116.934 125.171 116.759 125.276C116.602 125.369 116.497 125.465 116.445 125.564L116.279 125.87H115.249L118.069 120.047ZM118.767 123.958H119.972L118.549 121.208L117.108 124.325C117.236 124.214 117.431 124.127 117.693 124.063C117.99 123.993 118.348 123.958 118.767 123.958ZM124.066 120.309V122.474C124.247 122.369 124.447 122.299 124.669 122.264C124.832 122.235 125.041 122.221 125.297 122.221H126.537C126.88 122.221 127.148 122.142 127.34 121.985C127.544 121.816 127.646 121.563 127.646 121.225C127.646 120.905 127.538 120.667 127.323 120.509C127.136 120.376 126.874 120.309 126.537 120.309H124.066ZM126.851 124.84L126.057 123.172H125.297C125.059 123.172 124.849 123.187 124.669 123.216C124.447 123.257 124.247 123.326 124.066 123.425V125.87H123.115V119.357H126.537C126.938 119.357 127.293 119.433 127.602 119.584C127.91 119.735 128.149 119.951 128.318 120.23C128.498 120.527 128.588 120.876 128.588 121.278C128.588 121.767 128.457 122.168 128.196 122.483C127.934 122.797 127.564 123.015 127.087 123.137L127.593 124.176C127.739 124.392 127.852 124.543 127.934 124.63C128.033 124.741 128.127 124.815 128.217 124.853C128.308 124.891 128.425 124.91 128.571 124.91H128.667L128.876 124.901V125.87C128.539 125.87 128.289 125.858 128.126 125.835C127.852 125.788 127.619 125.698 127.427 125.564C127.2 125.401 127.008 125.16 126.851 124.84ZM131.399 123.26V124.918H135.415V125.87H130.448V119.357H135.031V120.317H131.399V122.29C131.58 122.186 131.781 122.116 132.002 122.081C132.165 122.052 132.374 122.037 132.63 122.037H134.053V123.006H132.63C132.392 123.006 132.182 123.021 132.002 123.05C131.781 123.091 131.58 123.161 131.399 123.26Z" fill="#222831"/>
</svg>
