<svg width="450" height="437" viewBox="0 0 450 437" fill="none" xmlns="http://www.w3.org/2000/svg">
<path d="M225 436.402C349.264 436.402 450 378.242 450 306.498C450 234.754 349.264 176.594 225 176.594C100.736 176.594 0 234.754 0 306.498C0 378.242 100.736 436.402 225 436.402Z" fill="#F0F0F0"/>
<path d="M354.217 351.57C339.463 343.052 339.463 329.243 354.217 320.725C368.971 312.206 392.893 312.206 407.648 320.725C422.402 329.243 422.402 343.052 407.648 351.57C392.893 360.088 368.971 360.088 354.217 351.57Z" fill="#E0E0E0"/>
<path d="M54.1278 352.756L15.3179 330.352C13.131 329.091 13.131 327.038 15.3179 325.778L241.063 195.444C242.29 194.822 243.646 194.498 245.021 194.498C246.397 194.498 247.753 194.822 248.979 195.444L287.799 217.847C289.986 219.108 289.986 221.161 287.799 222.422L62.054 352.756C60.8255 353.377 59.4678 353.701 58.0909 353.701C56.714 353.701 55.3563 353.377 54.1278 352.756Z" fill="#E0E0E0"/>
<path d="M193.629 312.816L226.996 293.526C230.434 291.54 232.153 288.942 232.153 286.335C232.153 283.728 232.153 281.694 232.153 281.694L197.545 262.174C196.578 261.549 195.773 260.704 195.195 259.708C194.618 258.712 194.284 257.594 194.221 256.444V215.295L135.968 248.967V290.098C136.035 291.246 136.371 292.363 136.948 293.358C137.525 294.353 138.328 295.199 139.292 295.827L168.743 312.788C175.599 316.789 186.753 316.789 193.629 312.816Z" fill="#00ADB5"/>
<g opacity="0.6">
<path d="M193.63 312.816L226.996 293.526C230.434 291.54 232.153 288.942 232.153 286.335C232.153 283.728 232.153 281.694 232.153 281.694L197.545 262.174C196.578 261.549 195.773 260.704 195.196 259.708C194.618 258.712 194.284 257.594 194.222 256.444V215.295L135.969 248.967V290.098C136.036 291.246 136.371 292.363 136.949 293.358C137.526 294.353 138.328 295.199 139.292 295.827L168.743 312.788C175.6 316.789 186.754 316.789 193.63 312.816Z" fill="black"/>
</g>
<path opacity="0.3" d="M149.94 297.383V302.005L139.263 295.846C138.3 295.218 137.498 294.372 136.922 293.377C136.347 292.381 136.014 291.264 135.95 290.116V248.966L147.046 242.559C147.276 245.376 147.524 248.288 147.763 251.153L139.961 255.642V287.776C140.022 288.926 140.356 290.045 140.933 291.041C141.511 292.037 142.317 292.882 143.284 293.506L149.94 297.383Z" fill="black"/>
<path d="M139.959 287.789C140.025 288.938 140.36 290.055 140.937 291.05C141.515 292.046 142.318 292.891 143.283 293.519L168.704 308.168C175.58 312.131 186.734 312.141 193.619 308.168L227.043 288.878C233.928 284.905 233.928 278.469 227.043 274.496L201.603 259.847C200.64 259.218 199.839 258.371 199.264 257.376C198.688 256.381 198.354 255.265 198.289 254.117V221.973L140.036 255.645L139.959 287.789Z" fill="#00ADB5"/>
<path opacity="0.3" d="M139.959 287.789C140.025 288.938 140.36 290.055 140.937 291.05C141.515 292.046 142.318 292.891 143.283 293.519L168.704 308.168C175.58 312.131 186.734 312.141 193.619 308.168L227.043 288.878C233.928 284.905 233.928 278.469 227.043 274.496L201.603 259.847C200.64 259.218 199.839 258.371 199.264 257.376C198.688 256.381 198.354 255.265 198.289 254.117V221.973L140.036 255.645L139.959 287.789Z" fill="black"/>
<path opacity="0.5" d="M208.335 263.772L201.564 259.866C200.602 259.237 199.801 258.391 199.225 257.395C198.65 256.4 198.316 255.284 198.251 254.136V221.973L139.998 255.645V287.789C140.063 288.938 140.398 290.055 140.976 291.05C141.553 292.046 142.356 292.891 143.321 293.519L150.006 297.339L208.335 263.772Z" fill="black"/>
<path d="M232.162 281.707V286.348C232.162 288.955 230.434 291.543 227.006 293.539L193.582 312.82C189.924 314.772 185.839 315.786 181.692 315.771V311.149C185.839 311.164 189.924 310.15 193.582 308.198L227.006 288.898C230.434 286.921 232.162 284.314 232.162 281.707Z" fill="#00ADB5"/>
<path opacity="0.5" d="M232.162 281.707V286.348C232.162 288.955 230.434 291.543 227.006 293.539L193.582 312.82C189.924 314.772 185.839 315.786 181.692 315.771V311.149C185.839 311.164 189.924 310.15 193.582 308.198L227.006 288.898C230.434 286.921 232.162 284.314 232.162 281.707Z" fill="black"/>
<path d="M46.3731 327.735C47.6324 328.343 49.017 328.647 50.4153 328.622C51.8137 328.597 53.1866 328.244 54.4235 327.592L279.796 197.477C281.004 196.689 282.01 195.627 282.732 194.378C283.454 193.129 283.871 191.727 283.95 190.286V7.96382C283.907 6.56228 283.533 5.19077 282.859 3.96106C282.186 2.73134 281.231 1.67822 280.073 0.887511C278.815 0.278581 277.431 -0.0249465 276.034 0.00160326C274.637 0.0281531 273.266 0.38403 272.032 1.04031L46.6596 131.193C45.4553 131.986 44.4556 133.053 43.742 134.306C43.0284 135.559 42.621 136.963 42.5532 138.403V320.697C42.5958 322.087 42.9635 323.447 43.6269 324.67C44.2903 325.892 45.2308 326.942 46.3731 327.735Z" fill="#00ADB5"/>
<path d="M54.4515 327.581L279.824 197.467C281.034 196.681 282.041 195.619 282.763 194.369C283.485 193.12 283.901 191.717 283.978 190.276V7.96319C283.978 5.31793 282.116 4.23882 279.824 5.56622L54.4515 135.681C53.2425 136.468 52.2363 137.53 51.5145 138.779C50.7927 140.029 50.3757 141.431 50.2974 142.871V325.184C50.2974 327.83 52.1595 328.909 54.4515 327.581Z" fill="#00ADB5"/>
<path opacity="0.5" d="M54.4515 327.581L279.824 197.467C281.034 196.681 282.041 195.619 282.763 194.369C283.485 193.12 283.901 191.717 283.978 190.276V7.96319C283.978 5.31793 282.116 4.23882 279.824 5.56622L54.4515 135.681C53.2425 136.468 52.2363 137.53 51.5145 138.779C50.7927 140.029 50.3757 141.431 50.2974 142.871V325.184C50.2974 327.83 52.1595 328.909 54.4515 327.581Z" fill="black"/>
<path d="M53.8409 332.319C52.6591 332.835 51.3795 333.088 50.0903 333.062C48.801 333.036 47.5328 332.73 46.3731 332.166C45.2283 331.371 44.2862 330.318 43.6227 329.093C42.9592 327.867 42.5929 326.502 42.5532 325.109V308.512L50.3362 313.019V329.617C50.2885 332.033 51.826 333.131 53.8409 332.319Z" fill="#00ADB5"/>
<path opacity="0.5" d="M53.8409 332.319C52.6591 332.835 51.3795 333.088 50.0903 333.062C48.801 333.036 47.5328 332.73 46.3731 332.166C45.2283 331.371 44.2862 330.318 43.6227 329.093C42.9592 327.867 42.5929 326.502 42.5532 325.109V308.512L50.3362 313.019V329.617C50.2885 332.033 51.826 333.131 53.8409 332.319Z" fill="black"/>
<path d="M50.2886 313.02V329.617C50.2886 332.262 52.1985 333.332 54.4427 332.014L279.815 201.9C281.019 201.115 282.021 200.06 282.743 198.817C283.464 197.575 283.884 196.181 283.969 194.747V178.073L50.2886 313.02Z" fill="#00ADB5"/>
<path opacity="0.3" d="M50.2974 312.982V329.617C50.2974 332.262 52.2073 333.332 54.4515 332.014L279.824 201.9C281.026 201.114 282.026 200.058 282.746 198.816C283.466 197.574 283.885 196.18 283.968 194.747V178.073L50.2974 312.982Z" fill="black"/>
<path d="M58.0815 292.154V145.462C58.126 144.597 58.3741 143.756 58.8056 143.006C59.2371 142.256 59.8397 141.618 60.5645 141.145L273.656 18.0783C275.031 17.2857 276.148 17.9255 276.148 19.5108V166.28C276.102 167.145 275.852 167.986 275.419 168.737C274.986 169.487 274.382 170.124 273.656 170.596L60.574 293.634C59.1989 294.427 58.0815 293.778 58.0815 292.154Z" fill="#00ADB5"/>
<path d="M58.0815 292.154V145.462C58.126 144.597 58.3741 143.756 58.8056 143.006C59.2371 142.256 59.8397 141.618 60.5645 141.145L273.656 18.0783C275.031 17.2857 276.148 17.9255 276.148 19.5108V166.28C276.102 167.145 275.852 167.986 275.419 168.737C274.986 169.487 274.382 170.124 273.656 170.596L60.574 293.634C59.1989 294.427 58.0815 293.778 58.0815 292.154Z" fill="#263238"/>
<path d="M167.129 250.831C165.995 251.569 165.051 252.564 164.374 253.736C163.697 254.907 163.306 256.222 163.233 257.573C163.233 260.056 164.981 261.069 167.129 259.827C168.265 259.088 169.21 258.092 169.887 256.918C170.564 255.745 170.954 254.428 171.025 253.075C171.025 250.593 169.278 249.59 167.129 250.831Z" fill="#00ADB5"/>
<path opacity="0.7" d="M51.5204 138.764C50.7803 140.008 50.3572 141.415 50.2885 142.861V313.017L42.5532 308.51V138.401C42.6033 136.951 43.0242 135.537 43.7756 134.295L51.5204 138.764Z" fill="black"/>
<path opacity="0.3" d="M283.93 7.27526C283.634 5.13613 281.906 4.41036 279.815 5.56587L54.4421 135.68C53.2201 136.444 52.2115 137.506 51.5103 138.765L43.7178 134.267C44.4237 133.008 45.4352 131.947 46.6591 131.182L272.032 1.07752C273.267 0.421154 274.64 0.0652598 276.038 0.0387123C277.437 0.0121648 278.822 0.315712 280.082 0.924725C281.141 1.64607 282.032 2.58633 282.696 3.68193C283.36 4.77753 283.781 6.00293 283.93 7.27526Z" fill="black"/>
<path d="M296.087 29.7191C295.752 29.5511 295.378 29.4774 295.005 29.506C294.631 29.5346 294.273 29.6644 293.967 29.8814L81.315 152.728C80.4759 153.284 79.7793 154.028 79.2816 154.903C78.7838 155.777 78.499 156.756 78.4501 157.761V303.556C78.4203 304.048 78.518 304.54 78.7338 304.983C78.9496 305.426 79.2762 305.807 79.682 306.087C80.1499 306.345 82.6519 307.796 83.3968 308.197C83.6603 308.331 83.9548 308.393 84.2501 308.377C84.5454 308.36 84.8309 308.265 85.0775 308.102L297.682 185.255C298.521 184.7 299.218 183.955 299.715 183.08C300.213 182.206 300.498 181.227 300.547 180.222V33.6726C300.59 33.3023 300.528 32.9274 300.37 32.59C300.211 32.2527 299.962 31.9662 299.649 31.7627C299.172 31.4475 296.622 30.0342 296.087 29.7191Z" fill="#00ADB5"/>
<path d="M85.0295 154.788L297.691 31.9887C299.296 31.0337 300.556 31.8168 300.556 33.6694V180.219C300.507 181.224 300.222 182.203 299.725 183.077C299.227 183.952 298.53 184.696 297.691 185.251L85.0295 308.099C83.4251 309.054 82.1646 307.516 82.1646 305.663V159.821C82.215 158.816 82.5005 157.837 82.998 156.963C83.4956 156.089 84.1914 155.344 85.0295 154.788Z" fill="#FAFAFA"/>
<path d="M298.99 32.5429C299.553 32.5429 299.639 33.2495 299.639 33.6697V180.219C299.588 181.061 299.341 181.878 298.918 182.608C298.496 183.337 297.909 183.958 297.204 184.421L84.5711 307.268C84.4284 307.361 84.2635 307.413 84.0936 307.421C83.5588 307.421 83.1386 306.6 83.1386 305.664V159.821C83.1847 158.98 83.4241 158.161 83.8381 157.427C84.2522 156.693 84.8298 156.065 85.526 155.59L298.169 32.8102C298.415 32.6515 298.698 32.5594 298.99 32.5429ZM298.99 31.5879C298.53 31.6075 298.082 31.7456 297.691 31.989L85.0295 154.788C84.1914 155.344 83.4956 156.09 82.998 156.964C82.5005 157.838 82.215 158.816 82.1646 159.821V305.664C82.1646 307.134 82.9858 308.376 84.0745 308.376C84.4117 308.369 84.7412 308.274 85.0295 308.099L297.682 185.252C298.521 184.697 299.217 183.952 299.715 183.078C300.213 182.203 300.498 181.224 300.547 180.219V33.6697C300.547 32.3519 299.897 31.5879 298.942 31.5879H298.99Z" fill="#E0E0E0"/>
<path d="M79.6245 306.086C79.9396 306.249 82.2029 307.538 83.196 308.111C82.8394 307.815 82.557 307.44 82.3712 307.015C82.1855 306.591 82.1017 306.129 82.1265 305.666V169.344L78.4021 167.167V303.556C78.3713 304.047 78.4675 304.538 78.6817 304.981C78.8958 305.424 79.2205 305.805 79.6245 306.086Z" fill="#F0F0F0"/>
<path d="M300.594 33.6414C300.594 31.8079 299.286 31.063 297.729 31.9893L85.0295 154.789C84.1914 155.345 83.4956 156.09 82.998 156.964C82.5005 157.838 82.215 158.817 82.1646 159.821V169.371L300.594 43.1911V33.6414Z" fill="#00ADB5"/>
<g opacity="0.4">
<path d="M297.691 31.9897L85.0294 154.779C84.1759 155.318 83.4728 156.064 82.9858 156.947L79.29 154.799C79.7762 153.946 80.4734 153.232 81.3146 152.726L293.967 29.8792C294.271 29.6607 294.629 29.5292 295.003 29.4989C295.377 29.4687 295.751 29.5407 296.087 29.7073C296.603 30.032 299.019 31.3976 299.639 31.7318C299.318 31.6128 298.973 31.574 298.633 31.619C298.294 31.6639 297.97 31.7912 297.691 31.9897Z" fill="white"/>
</g>
<path opacity="0.15" d="M78.4019 167.177V157.713C78.4411 156.682 78.7471 155.679 79.29 154.801L82.9952 156.94C82.4601 157.802 82.1605 158.79 82.1262 159.805V169.354L78.4019 167.177Z" fill="black"/>
<path d="M255.75 143.578L128.385 217.111C127.766 217.513 127.25 218.055 126.88 218.694C126.51 219.333 126.296 220.05 126.256 220.787V257.305C126.296 258.043 126.51 258.76 126.88 259.399C127.25 260.038 127.766 260.58 128.385 260.982L132.1 263.121C132.76 263.455 133.49 263.629 134.23 263.629C134.97 263.629 135.699 263.455 136.359 263.121L263.704 189.589C264.324 189.185 264.84 188.64 265.21 188C265.58 187.36 265.794 186.641 265.834 185.902V149.375C265.794 148.638 265.58 147.92 265.21 147.282C264.839 146.643 264.324 146.1 263.704 145.698L259.98 143.559C259.323 143.231 258.597 143.061 257.863 143.065C257.128 143.068 256.404 143.244 255.75 143.578Z" fill="#00ADB5"/>
<path opacity="0.5" d="M265.834 149.051C265.681 147.952 264.793 147.551 263.724 148.172L136.36 221.705C135.731 222.095 135.215 222.641 134.86 223.29L126.886 218.687C127.244 218.048 127.756 217.51 128.376 217.121L255.75 143.588C256.408 143.254 257.136 143.079 257.874 143.079C258.613 143.079 259.341 143.254 259.999 143.588L263.724 145.727C264.291 146.099 264.773 146.588 265.137 147.161C265.501 147.734 265.739 148.378 265.834 149.051Z" fill="white"/>
<path d="M135.997 263.306C135.373 263.551 134.705 263.663 134.035 263.633C133.365 263.604 132.709 263.433 132.11 263.134L128.385 260.995C127.767 260.591 127.252 260.049 126.882 259.41C126.512 258.771 126.298 258.055 126.256 257.318V220.8C126.285 220.055 126.501 219.329 126.886 218.689L134.86 223.292C134.473 223.923 134.255 224.644 134.23 225.384V261.911C134.23 263.124 134.994 263.688 135.997 263.306Z" fill="#263238"/>
<path d="M136.36 221.704L263.724 148.171C264.899 147.493 265.854 148.038 265.854 149.394V185.921C265.813 186.66 265.599 187.378 265.229 188.019C264.859 188.659 264.344 189.203 263.724 189.607L136.379 263.14C135.204 263.818 134.25 263.264 134.25 261.908V225.39C134.288 224.653 134.499 223.936 134.865 223.295C135.232 222.655 135.744 222.11 136.36 221.704Z" fill="#00ADB5"/>
<path d="M221.982 163.079L128.395 217.121C127.775 217.51 127.263 218.048 126.905 218.687L134.879 223.29C135.234 222.641 135.75 222.095 136.379 221.705L229.965 167.672L221.982 163.079Z" fill="#455A64"/>
<path d="M229.947 167.673L136.36 221.705C135.74 222.109 135.225 222.653 134.855 223.294C134.485 223.934 134.271 224.653 134.23 225.391V261.9C134.23 263.256 135.185 263.809 136.36 263.131L229.947 209.099V167.673Z" fill="#37474F"/>
<path d="M157.942 217.255L206.235 189.379C208.23 188.223 209.854 189.045 209.854 191.213C209.765 192.43 209.39 193.609 208.759 194.655C208.128 195.7 207.26 196.582 206.225 197.229L157.942 225.114C155.946 226.269 154.313 225.448 154.313 223.28C154.403 222.062 154.778 220.881 155.409 219.835C156.039 218.788 156.907 217.904 157.942 217.255Z" fill="#00ADB5"/>
<path d="M167.835 226.489C167.844 226.479 167.855 226.471 167.867 226.465C167.88 226.46 167.893 226.457 167.907 226.457C167.92 226.457 167.934 226.46 167.946 226.465C167.958 226.471 167.969 226.479 167.978 226.489C168.021 226.554 168.041 226.631 168.036 226.709V232.143C168.036 232.668 167.992 233.192 167.902 233.709C167.823 234.182 167.688 234.643 167.501 235.084C167.33 235.488 167.105 235.867 166.832 236.211C166.564 236.53 166.24 236.798 165.877 237.004C165.593 237.189 165.262 237.288 164.922 237.29C164.793 237.28 164.667 237.243 164.552 237.182C164.437 237.122 164.335 237.038 164.254 236.937C164.044 236.656 163.907 236.328 163.853 235.982C163.761 235.52 163.72 235.049 163.729 234.578V229.135C163.728 229.039 163.748 228.945 163.786 228.858C163.809 228.779 163.86 228.711 163.929 228.667L164.531 228.313C164.55 228.295 164.576 228.285 164.602 228.285C164.629 228.285 164.655 228.295 164.674 228.313C164.718 228.378 164.739 228.455 164.731 228.533V233.9C164.724 234.195 164.753 234.49 164.817 234.778C164.844 234.963 164.923 235.135 165.047 235.275C165.09 235.326 165.144 235.367 165.205 235.393C165.266 235.42 165.333 235.432 165.4 235.428C165.563 235.417 165.721 235.364 165.858 235.275C166.028 235.174 166.183 235.048 166.317 234.903C166.466 234.731 166.588 234.538 166.68 234.33C166.787 234.085 166.867 233.828 166.918 233.566C166.974 233.25 167 232.931 166.995 232.611V227.234C166.998 227.138 167.02 227.044 167.062 226.957C167.085 226.879 167.136 226.811 167.205 226.766L167.835 226.489Z" fill="#FAFAFA"/>
<path d="M171.579 231.624C171.584 231.554 171.568 231.484 171.531 231.424C171.509 231.399 171.48 231.38 171.449 231.368C171.417 231.357 171.383 231.353 171.35 231.357C171.233 231.341 171.114 231.341 170.997 231.357L170.443 231.462C170.264 231.507 170.077 231.507 169.898 231.462C169.758 231.417 169.637 231.326 169.555 231.204C169.461 231.049 169.4 230.877 169.373 230.698C169.28 230.187 169.28 229.662 169.373 229.151C169.445 228.858 169.547 228.573 169.679 228.301C169.81 228.03 169.97 227.774 170.156 227.537C170.337 227.312 170.557 227.121 170.806 226.974C171.007 226.851 171.231 226.773 171.465 226.745C171.634 226.727 171.805 226.764 171.952 226.85C172.092 226.935 172.202 227.062 172.267 227.212C172.344 227.391 172.386 227.582 172.391 227.776C172.401 227.872 172.381 227.969 172.334 228.053C172.31 228.132 172.259 228.199 172.19 228.244L171.617 228.578C171.591 228.593 171.562 228.601 171.531 228.601C171.501 228.601 171.472 228.593 171.446 228.578L171.321 228.483C171.272 228.444 171.212 228.42 171.149 228.416C171.027 228.429 170.909 228.472 170.806 228.54C170.656 228.63 170.523 228.747 170.414 228.884C170.299 229.034 170.238 229.219 170.242 229.409C170.229 229.481 170.229 229.556 170.242 229.629C170.261 229.655 170.285 229.678 170.313 229.695C170.341 229.711 170.372 229.721 170.405 229.724C170.509 229.741 170.615 229.741 170.72 229.724L171.255 229.629C171.703 229.543 172.009 229.629 172.21 229.877C172.42 230.231 172.517 230.641 172.486 231.051C172.484 231.335 172.445 231.618 172.372 231.892C172.296 232.19 172.187 232.478 172.047 232.751C171.907 233.034 171.73 233.297 171.522 233.534C171.324 233.766 171.088 233.963 170.825 234.117C170.615 234.251 170.376 234.333 170.128 234.356C169.948 234.362 169.771 234.312 169.622 234.212C169.474 234.112 169.361 233.968 169.297 233.802C169.22 233.621 169.181 233.426 169.182 233.229C169.173 233.13 169.193 233.03 169.24 232.942C169.263 232.864 169.314 232.796 169.383 232.751L169.956 232.417C170.032 232.417 170.089 232.369 170.128 232.417L170.252 232.551C170.277 232.579 170.308 232.602 170.342 232.619C170.377 232.635 170.414 232.644 170.452 232.646C170.587 232.647 170.718 232.603 170.825 232.522C170.997 232.424 171.152 232.298 171.283 232.15C171.348 232.071 171.403 231.984 171.446 231.892C171.513 231.816 171.559 231.724 171.579 231.624Z" fill="#FAFAFA"/>
<path d="M173.527 229.039C173.525 228.543 173.566 228.047 173.651 227.559C173.731 227.099 173.855 226.648 174.023 226.212C174.164 225.822 174.356 225.452 174.596 225.114C174.796 224.823 175.057 224.579 175.36 224.398C175.582 224.249 175.852 224.191 176.115 224.235C176.348 224.289 176.552 224.429 176.688 224.627C176.867 224.886 176.994 225.178 177.06 225.486C177.152 225.887 177.197 226.297 177.194 226.709V227.301C177.197 227.4 177.174 227.499 177.127 227.587C177.103 227.666 177.053 227.734 176.984 227.778L174.501 229.22C174.495 229.388 174.517 229.556 174.568 229.717C174.605 229.825 174.671 229.921 174.759 229.994C174.837 230.056 174.936 230.087 175.036 230.08C175.151 230.066 175.262 230.027 175.36 229.965C175.505 229.887 175.634 229.783 175.742 229.66C175.84 229.55 175.923 229.428 175.99 229.297C176.031 229.221 176.076 229.148 176.124 229.077C176.165 229.028 176.214 228.987 176.267 228.953L176.86 228.609C176.88 228.593 176.905 228.584 176.931 228.584C176.957 228.584 176.982 228.593 177.003 228.609C177.028 228.639 177.046 228.675 177.056 228.713C177.066 228.75 177.067 228.79 177.06 228.829C177.05 229.015 177.011 229.198 176.945 229.373C176.863 229.638 176.754 229.894 176.621 230.137C176.471 230.417 176.292 230.679 176.086 230.92C175.88 231.166 175.635 231.376 175.36 231.541C175.135 231.689 174.864 231.753 174.596 231.722C174.361 231.666 174.157 231.523 174.023 231.321C173.835 231.032 173.709 230.707 173.651 230.366C173.564 229.929 173.522 229.484 173.527 229.039ZM175.36 225.992C175.213 226.072 175.086 226.182 174.988 226.317C174.882 226.451 174.795 226.599 174.73 226.756C174.663 226.914 174.609 227.077 174.568 227.243C174.534 227.394 174.512 227.548 174.501 227.702L176.181 226.747C176.172 226.615 176.153 226.484 176.124 226.355C176.11 226.24 176.063 226.131 175.99 226.04C175.962 225.999 175.925 225.964 175.882 225.938C175.84 225.911 175.792 225.894 175.742 225.887C175.606 225.876 175.471 225.913 175.36 225.992Z" fill="#FAFAFA"/>
<path d="M180.193 223.328C179.903 223.494 179.676 223.748 179.543 224.054C179.395 224.457 179.327 224.886 179.343 225.315V228.762C179.344 228.861 179.325 228.958 179.286 229.049C179.262 229.127 179.211 229.195 179.142 229.24L178.579 229.564C178.57 229.575 178.559 229.583 178.547 229.588C178.534 229.594 178.521 229.597 178.507 229.597C178.494 229.597 178.48 229.594 178.468 229.588C178.456 229.583 178.445 229.575 178.436 229.564C178.393 229.5 178.373 229.422 178.378 229.345V223.166C178.379 223.068 178.398 222.971 178.436 222.88C178.462 222.803 178.512 222.736 178.579 222.689L179.142 222.364C179.162 222.346 179.187 222.336 179.214 222.336C179.241 222.336 179.266 222.346 179.286 222.364C179.33 222.425 179.35 222.499 179.343 222.574V222.88C179.457 222.623 179.598 222.38 179.763 222.154C179.914 221.945 180.11 221.772 180.336 221.648L180.68 221.447C180.698 221.43 180.722 221.42 180.747 221.42C180.772 221.42 180.796 221.43 180.814 221.447C180.86 221.511 180.883 221.588 180.88 221.667V222.536C180.879 222.635 180.856 222.733 180.814 222.822C180.789 222.898 180.743 222.965 180.68 223.013L180.193 223.328Z" fill="#FAFAFA"/>
<path d="M187.317 222.869C187.326 222.859 187.337 222.851 187.349 222.846C187.362 222.84 187.375 222.837 187.389 222.837C187.402 222.837 187.416 222.84 187.428 222.846C187.44 222.851 187.451 222.859 187.46 222.869C187.503 222.934 187.523 223.012 187.518 223.089V224.044C187.517 224.142 187.498 224.24 187.46 224.331C187.428 224.401 187.378 224.464 187.317 224.512L184.051 226.422C184.032 226.44 184.006 226.45 183.979 226.45C183.953 226.45 183.927 226.44 183.908 226.422C183.865 226.361 183.845 226.286 183.851 226.212V217.617C183.851 217.519 183.87 217.421 183.908 217.331C183.935 217.256 183.985 217.192 184.051 217.149L184.653 216.796C184.672 216.778 184.698 216.768 184.724 216.768C184.751 216.768 184.777 216.778 184.796 216.796C184.839 216.857 184.859 216.931 184.853 217.006V224.273L187.317 222.869Z" fill="#FAFAFA"/>
<path d="M190.249 215.803C190.464 215.654 190.723 215.584 190.984 215.603C191.208 215.62 191.416 215.723 191.567 215.889C191.745 216.094 191.875 216.335 191.949 216.596C192.051 216.934 192.108 217.284 192.12 217.637C192.12 217.713 192.12 217.818 192.12 217.942V218.678C192.12 218.792 192.12 218.897 192.12 218.983C192.102 219.398 192.044 219.811 191.949 220.215C191.86 220.609 191.732 220.993 191.567 221.361C191.415 221.704 191.219 222.025 190.984 222.316C190.783 222.58 190.533 222.804 190.249 222.975C190.028 223.119 189.767 223.189 189.504 223.176C189.283 223.156 189.078 223.054 188.931 222.889C188.748 222.692 188.616 222.452 188.549 222.192C188.447 221.854 188.389 221.504 188.377 221.151C188.377 221.075 188.377 220.979 188.377 220.855V220.12C188.377 219.996 188.377 219.89 188.377 219.814C188.388 219.396 188.442 218.98 188.539 218.573C188.632 218.176 188.763 217.789 188.931 217.417C189.083 217.077 189.275 216.756 189.504 216.462C189.706 216.196 189.959 215.972 190.249 215.803ZM191.146 218.267C191.146 218.056 191.11 217.846 191.041 217.646C191.006 217.525 190.932 217.417 190.831 217.341C190.75 217.286 190.652 217.262 190.554 217.274C190.445 217.294 190.341 217.337 190.249 217.398C190.136 217.459 190.034 217.537 189.943 217.627C189.834 217.741 189.74 217.87 189.666 218.009C189.57 218.183 189.499 218.369 189.456 218.563C189.393 218.807 189.355 219.056 189.341 219.308C189.341 219.384 189.341 219.47 189.341 219.575V220.253C189.341 220.358 189.341 220.444 189.341 220.502C189.35 220.713 189.389 220.922 189.456 221.122C189.491 221.244 189.565 221.352 189.666 221.428C189.706 221.456 189.751 221.476 189.799 221.486C189.846 221.495 189.895 221.495 189.943 221.485C190.051 221.467 190.155 221.428 190.249 221.371C190.359 221.307 190.462 221.23 190.554 221.141C190.661 221.025 190.754 220.897 190.831 220.759C190.923 220.584 190.994 220.398 191.041 220.206C191.104 219.962 191.139 219.712 191.146 219.461C191.152 219.372 191.152 219.282 191.146 219.193V218.525C191.152 218.439 191.152 218.353 191.146 218.267Z" fill="#FAFAFA"/>
<path d="M195.042 221.393C195.164 221.318 195.274 221.224 195.367 221.116C195.482 220.981 195.581 220.833 195.663 220.676C195.758 220.484 195.831 220.283 195.882 220.075C195.941 219.84 195.97 219.6 195.968 219.358V218.871C195.968 218.967 195.873 219.081 195.806 219.215C195.74 219.355 195.664 219.489 195.577 219.616C195.477 219.751 195.368 219.878 195.252 219.998C195.132 220.124 194.994 220.23 194.841 220.313C194.743 220.38 194.633 220.427 194.516 220.45C194.399 220.473 194.279 220.472 194.163 220.447C193.951 220.381 193.769 220.242 193.648 220.056C193.492 219.809 193.379 219.538 193.313 219.253C193.232 218.893 193.187 218.525 193.18 218.155C193.18 218.031 193.18 217.878 193.18 217.697C193.18 217.515 193.18 217.363 193.18 217.229C193.192 216.809 193.236 216.391 193.313 215.978C193.392 215.571 193.504 215.172 193.648 214.784C193.783 214.447 193.956 214.127 194.163 213.829C194.339 213.566 194.571 213.344 194.841 213.18C194.968 213.103 195.107 213.049 195.252 213.017C195.359 212.998 195.469 212.998 195.577 213.017C195.661 213.041 195.74 213.084 195.806 213.142C195.867 213.188 195.921 213.243 195.968 213.304V212.998C195.969 212.9 195.988 212.803 196.026 212.712C196.052 212.637 196.102 212.574 196.169 212.53L196.732 212.196C196.752 212.178 196.777 212.168 196.804 212.168C196.83 212.168 196.856 212.178 196.875 212.196C196.922 212.26 196.945 212.337 196.942 212.416V218.623C196.968 219.553 196.795 220.477 196.436 221.335C196.154 222.01 195.666 222.578 195.042 222.959C194.829 223.091 194.586 223.167 194.335 223.178C194.137 223.19 193.94 223.14 193.772 223.035C193.61 222.914 193.48 222.757 193.39 222.577C193.297 222.359 193.245 222.126 193.237 221.889C193.228 221.79 193.248 221.691 193.294 221.603C193.318 221.524 193.369 221.456 193.438 221.412L193.944 221.125C193.955 221.113 193.969 221.103 193.985 221.096C194.001 221.089 194.017 221.086 194.034 221.086C194.051 221.086 194.068 221.089 194.084 221.096C194.099 221.103 194.113 221.113 194.125 221.125C194.172 221.175 194.214 221.229 194.249 221.287C194.307 221.39 194.403 221.465 194.517 221.498C194.631 221.584 194.803 221.488 195.042 221.393ZM194.144 216.761C194.144 217.016 194.144 217.264 194.144 217.506C194.117 217.887 194.225 218.266 194.45 218.575C194.535 218.649 194.643 218.689 194.755 218.689C194.868 218.689 194.976 218.649 195.061 218.575C195.338 218.395 195.554 218.136 195.682 217.83C195.856 217.432 195.953 217.004 195.968 216.57C195.968 216.427 195.968 216.255 195.968 216.054C195.968 215.854 195.968 215.682 195.968 215.558C195.988 215.216 195.886 214.878 195.682 214.603C195.597 214.525 195.486 214.482 195.371 214.482C195.256 214.482 195.146 214.525 195.061 214.603C194.789 214.782 194.577 215.038 194.45 215.338C194.254 215.787 194.15 216.271 194.144 216.761Z" fill="#FAFAFA"/>
<path d="M199.168 208.278C199.187 208.262 199.21 208.254 199.235 208.254C199.259 208.254 199.283 208.262 199.301 208.278C199.351 208.34 199.375 208.418 199.368 208.498V209.538C199.369 209.638 199.346 209.736 199.301 209.825C199.275 209.897 199.228 209.96 199.168 210.006L198.528 210.379C198.519 210.389 198.508 210.397 198.496 210.403C198.483 210.408 198.47 210.411 198.456 210.411C198.443 210.411 198.429 210.408 198.417 210.403C198.405 210.397 198.394 210.389 198.385 210.379C198.36 210.35 198.341 210.317 198.329 210.281C198.318 210.245 198.314 210.206 198.318 210.169V209.128C198.317 209.028 198.34 208.93 198.385 208.841C198.411 208.767 198.462 208.703 198.528 208.66L199.168 208.278ZM199.33 217.245C199.33 217.34 199.311 217.435 199.273 217.522C199.242 217.597 199.193 217.663 199.13 217.713L198.557 218.038C198.549 218.048 198.538 218.056 198.527 218.061C198.515 218.067 198.503 218.07 198.49 218.07C198.477 218.07 198.464 218.067 198.453 218.061C198.441 218.056 198.431 218.048 198.423 218.038C198.373 217.976 198.349 217.897 198.356 217.818V211.639C198.355 211.54 198.378 211.442 198.423 211.353C198.45 211.279 198.496 211.213 198.557 211.162L199.13 210.837C199.149 210.819 199.175 210.809 199.201 210.809C199.228 210.809 199.253 210.819 199.273 210.837C199.316 210.899 199.336 210.973 199.33 211.047V217.245Z" fill="#FAFAFA"/>
<path d="M204.353 214.335C204.353 214.433 204.333 214.53 204.296 214.621C204.269 214.696 204.219 214.759 204.153 214.803L203.58 215.137C203.562 215.154 203.538 215.164 203.513 215.164C203.488 215.164 203.464 215.154 203.446 215.137C203.396 215.075 203.372 214.996 203.379 214.917V211.556C203.409 211.159 203.336 210.761 203.169 210.4C203.035 210.162 202.825 210.123 202.529 210.295C202.234 210.494 202.015 210.787 201.909 211.126C201.749 211.577 201.672 212.052 201.679 212.53V215.901C201.679 215.999 201.659 216.097 201.622 216.187C201.599 216.266 201.548 216.334 201.479 216.378L200.915 216.703C200.906 216.713 200.895 216.721 200.883 216.727C200.871 216.733 200.857 216.735 200.844 216.735C200.83 216.735 200.817 216.733 200.804 216.727C200.792 216.721 200.781 216.713 200.772 216.703C200.728 216.643 200.708 216.568 200.715 216.493V210.314C200.713 210.216 200.733 210.118 200.772 210.028C200.796 209.949 200.846 209.881 200.915 209.837L201.479 209.512C201.488 209.502 201.499 209.494 201.511 209.488C201.524 209.483 201.537 209.48 201.55 209.48C201.564 209.48 201.577 209.483 201.59 209.488C201.602 209.494 201.613 209.502 201.622 209.512C201.665 209.577 201.685 209.654 201.679 209.732V210.028C201.805 209.737 201.959 209.459 202.138 209.197C202.295 208.956 202.508 208.756 202.758 208.615C202.976 208.456 203.246 208.387 203.513 208.424C203.619 208.45 203.717 208.499 203.803 208.566C203.889 208.634 203.959 208.719 204.009 208.815C204.148 209.074 204.239 209.355 204.277 209.646C204.328 210.026 204.353 210.409 204.353 210.792V214.335Z" fill="#FAFAFA"/>
<path d="M252.522 186.532L243.249 191.879L244.691 178.873C243.574 178.281 242.867 176.839 242.867 174.766C242.867 171.071 245.121 166.783 247.89 165.217C250.66 163.651 252.904 165.312 252.904 169.037C252.847 171.228 252.221 173.367 251.089 175.244L252.522 186.532Z" fill="#455A64"/>
<path d="M252.531 186.534L244.366 181.826L243.249 191.892L252.531 186.534Z" fill="#37474F"/>
<path d="M247.872 165.189C245.852 166.554 244.346 168.553 243.593 170.871L251.071 175.188C252.203 173.311 252.828 171.172 252.885 168.98C252.904 165.285 250.66 163.594 247.872 165.189Z" fill="#37474F"/>
<path d="M202.797 121.88C199.617 120.047 195.234 120.305 190.382 123.103C180.699 128.699 172.849 142.288 172.849 153.471C172.849 159.086 174.835 163.02 178.025 164.835L184.204 168.425C187.374 170.259 191.757 169.991 196.618 167.193C206.302 161.607 214.151 148.008 214.151 136.825C214.151 131.239 212.184 127.276 209.014 125.49" fill="#00ADB5"/>
<path d="M196.608 126.704C186.925 132.3 179.075 145.899 179.075 157.072C179.075 168.245 186.925 172.79 196.608 167.194C206.292 161.598 214.151 148.009 214.142 136.826C214.132 125.644 206.282 121.117 196.608 126.704Z" fill="#00ADB5"/>
<path d="M206.282 151.514V152.793C203.962 156.934 200.635 160.422 196.608 162.935C192.836 165.103 189.427 165.342 186.925 163.957V161.321C187.053 158.579 187.836 155.907 189.208 153.53C190.581 151.152 192.502 149.138 194.813 147.656L197.363 146.185C199.616 144.886 201.813 144.714 203.532 145.717C205.251 146.72 206.282 148.83 206.282 151.514Z" fill="#00ADB5"/>
<path opacity="0.4" d="M202.797 121.881L209.004 125.491C205.834 123.648 201.45 123.906 196.59 126.704C190.249 130.371 184.691 137.466 181.616 145.068L175.399 141.468C178.483 133.828 183.994 126.771 190.373 123.104C195.243 120.315 199.626 120.048 202.797 121.881Z" fill="white"/>
<path opacity="0.2" d="M183.983 168.285L178.034 164.838C174.844 163.023 172.858 159.108 172.858 153.474L179.075 157.083C179.113 162.527 180.946 166.404 183.983 168.285Z" fill="black"/>
<path opacity="0.1" d="M175.418 141.467L181.634 145.067C180.041 148.873 179.186 152.946 179.113 157.071L172.896 153.461C172.973 149.34 173.828 145.27 175.418 141.467Z" fill="black"/>
<path d="M194.393 145.584C193.801 145.591 193.217 145.439 192.703 145.145C192.083 144.732 191.586 144.158 191.265 143.486C190.944 142.814 190.81 142.067 190.879 141.325C190.96 139.585 191.456 137.89 192.327 136.381C193.198 134.873 194.417 133.595 195.883 132.654C196.472 132.184 197.189 131.902 197.94 131.846C198.691 131.79 199.442 131.962 200.094 132.34C200.746 132.718 201.269 133.283 201.595 133.963C201.92 134.642 202.033 135.404 201.918 136.149C201.836 137.889 201.338 139.583 200.468 141.092C199.597 142.6 198.379 143.878 196.914 144.82C196.156 145.293 195.286 145.557 194.393 145.584Z" fill="white"/>
<path d="M203.532 145.707C201.813 144.705 199.616 144.876 197.363 146.175L194.813 147.646C192.501 149.129 190.578 151.145 189.206 153.524C187.834 155.904 187.051 158.577 186.925 161.321V163.966C189.427 165.351 192.836 165.112 196.608 162.944C200.635 160.432 203.962 156.943 206.282 152.803V151.523C206.282 148.83 205.289 146.72 203.532 145.707Z" fill="white"/>
<path d="M399.854 310.919C399.854 310.919 401.124 299.765 406.672 291.104C412.221 282.442 419.841 277.047 426.956 276.483C434.071 275.92 439.819 282.471 432.208 286.988C424.597 291.505 411.075 296.07 404.848 312.877L399.854 310.919Z" fill="#00ADB5"/>
<path opacity="0.1" d="M399.854 310.919C399.854 310.919 401.124 299.765 406.672 291.104C412.221 282.442 419.841 277.047 426.956 276.483C434.071 275.92 439.819 282.471 432.208 286.988C424.597 291.505 411.075 296.07 404.848 312.877L399.854 310.919Z" fill="black"/>
<path d="M401.945 308.019H401.868C401.775 307.981 401.7 307.907 401.661 307.814C401.621 307.721 401.62 307.616 401.658 307.522C409.164 289.044 423.45 281.318 429.963 279.828C430.012 279.817 430.063 279.815 430.112 279.824C430.162 279.832 430.209 279.85 430.252 279.876C430.294 279.903 430.331 279.938 430.36 279.979C430.39 280.02 430.41 280.066 430.422 280.115C430.433 280.164 430.435 280.214 430.426 280.264C430.418 280.313 430.4 280.361 430.373 280.403C430.347 280.446 430.312 280.483 430.271 280.512C430.23 280.541 430.184 280.562 430.135 280.573C423.756 282.044 409.747 289.626 402.365 307.818C402.328 307.894 402.266 307.956 402.19 307.992C402.113 308.029 402.027 308.038 401.945 308.019Z" fill="white"/>
<path d="M439.934 308.234C439.294 309.686 437.709 310.45 436.238 311.042C434.767 311.634 433.163 312.274 432.361 313.649C430.756 316.418 433.392 320.334 431.673 323.017C431.268 323.557 430.759 324.01 430.174 324.348C429.59 324.686 428.944 324.903 428.273 324.984C427.175 325.185 426.058 325.185 424.95 325.28C424.42 325.273 423.89 325.232 423.365 325.156C421.822 324.812 420.208 324.983 418.772 325.643C416.566 326.885 415.907 329.664 414.551 331.812C413.722 333.077 412.63 334.149 411.35 334.953C410.069 335.757 408.63 336.276 407.13 336.473C406.176 336.597 404.266 336.778 403.311 336.215C403.236 336.178 403.165 336.133 403.101 336.081C402.957 335.928 402.785 335.728 402.709 335.623C402.704 335.601 402.704 335.578 402.709 335.556C402.317 334.114 402.957 332.624 402.986 331.134V330.867C402.919 329.138 402.871 327.42 402.833 325.701C402.75 322.517 402.719 319.334 402.738 316.151C402.738 314.088 402.508 311.834 403.387 309.896C404.342 307.757 406.749 307.709 407.656 305.618C408.019 304.777 408.21 303.889 408.563 303.039C409.109 301.804 409.984 300.741 411.092 299.969C412.2 299.196 413.498 298.742 414.847 298.656C419.039 298.446 422.792 301.836 426.984 301.521C428.063 301.435 429.123 301.101 430.193 300.91C433.583 300.27 437.508 301.234 439.418 304.109C439.837 304.701 440.104 305.387 440.193 306.107C440.283 306.826 440.194 307.557 439.934 308.234Z" fill="#00ADB5"/>
<path d="M402.289 328.94C402.198 328.913 402.122 328.852 402.076 328.771C402.029 328.689 402.017 328.592 402.04 328.501C407.828 306.785 430.69 303.671 436.066 304.034C436.113 304.037 436.16 304.049 436.202 304.069C436.245 304.09 436.283 304.119 436.314 304.155C436.345 304.19 436.369 304.232 436.384 304.277C436.398 304.322 436.404 304.369 436.4 304.416C436.391 304.509 436.345 304.595 436.274 304.655C436.203 304.716 436.111 304.746 436.018 304.741C430.775 304.369 408.391 307.434 402.728 328.692C402.701 328.782 402.641 328.858 402.559 328.905C402.477 328.951 402.38 328.964 402.289 328.94Z" fill="white"/>
<path d="M427.72 317.938C427.647 317.928 427.58 317.894 427.529 317.843C425.415 316.011 422.923 314.668 420.231 313.91C417.539 313.153 414.712 312.999 411.953 313.459C411.86 313.468 411.768 313.441 411.693 313.385C411.619 313.328 411.569 313.246 411.552 313.154C411.538 313.06 411.562 312.965 411.617 312.888C411.672 312.811 411.755 312.759 411.848 312.743C414.726 312.264 417.673 312.428 420.48 313.222C423.287 314.016 425.883 315.421 428.083 317.336C428.117 317.369 428.143 317.409 428.162 317.452C428.18 317.496 428.19 317.542 428.19 317.589C428.19 317.637 428.18 317.683 428.162 317.727C428.143 317.77 428.117 317.81 428.083 317.843C428.04 317.894 427.982 317.931 427.917 317.948C427.852 317.965 427.783 317.962 427.72 317.938Z" fill="white"/>
<path d="M347.303 48.6337L350.34 49.7988V43.114C350.34 37.8044 354.57 36.5343 359.164 39.1891C363.767 41.8439 367.491 48.2899 367.491 53.5995V54.5545C368.131 54.3589 368.807 54.3106 369.469 54.4131C370.13 54.5156 370.76 54.7664 371.311 55.1466C373.055 56.2839 374.507 57.8167 375.547 59.6204C376.587 61.4241 377.187 63.4478 377.299 65.5271V65.9664L381.539 68.4111C382.686 69.1599 383.641 70.1681 384.326 71.3543C385.011 72.5405 385.407 73.8713 385.483 75.2391C385.483 77.7602 383.716 78.782 381.539 77.5215L347.303 57.7441C346.155 56.9971 345.2 55.989 344.516 54.8023C343.833 53.6156 343.439 52.2839 343.369 50.9161C343.369 48.4045 345.116 47.3827 347.303 48.6337Z" fill="#E6E6E6"/>
<path d="M387.975 43.3435L393.485 46.5235C393.455 46.2828 393.439 46.0404 393.438 45.7978V44.203C393.438 41.3381 395.424 40.2112 397.888 41.6341C398.947 42.2823 399.852 43.1522 400.543 44.1839C400.944 40.6123 403.751 39.2849 407.151 41.2426C409.094 42.5067 410.712 44.2107 411.873 46.2166C413.034 48.2225 413.707 50.4739 413.836 52.7881V55.1755C413.86 56.1295 413.668 57.0765 413.272 57.945L417.856 60.5807C418.571 61.0544 419.164 61.6892 419.589 62.4338C420.013 63.1785 420.257 64.0124 420.301 64.8685C420.301 66.4442 419.193 67.084 417.828 66.3009L387.975 49.1115C387.253 48.6411 386.653 48.0065 386.223 47.2596C385.793 46.5128 385.546 45.6748 385.502 44.8141C385.502 43.2003 386.61 42.5604 387.975 43.3435Z" fill="#E6E6E6"/>
<path d="M366.641 188.277C362.63 195.058 358.772 200.95 356.06 203.776C350.913 206.164 338.823 209.85 334.096 210.461C333.266 210.567 332.425 210.37 331.728 209.907C329.866 208.685 328.424 208.484 326.466 207.806C324.928 207.281 324.279 206.546 323.992 206.851C323.697 207.198 323.548 207.647 323.578 208.102C323.608 208.557 323.815 208.982 324.155 209.287C324.889 209.984 325.704 210.593 326.58 211.101C324.484 211.621 322.296 211.66 320.182 211.216C316.085 210.136 314.156 212.104 316.926 216.554C317.881 218.139 321.815 220.689 329.722 220.001C332.543 219.849 335.352 219.53 338.136 219.046C345.718 217.423 354.15 215.857 359.336 214.271C361.265 213.513 362.991 212.316 364.378 210.776C373.097 200.835 375.991 193.749 379.81 187.313L379.486 176.808C373.298 176.598 369.993 182.605 366.641 188.277Z" fill="#FFA8A7"/>
<path d="M380.545 176.601C378.751 176.348 376.922 176.591 375.256 177.303C373.589 178.015 372.149 179.169 371.091 180.64C366.851 186.074 359.345 199.119 359.345 199.119C359.345 199.119 361.799 205.66 368.427 206.759L379.075 192.377C379.075 192.377 384.117 182.388 380.545 176.601Z" fill="#455A64"/>
<path d="M403.57 323.225H396.627V335.601H403.57V323.225Z" fill="#FFA8A7"/>
<path d="M379.504 322.567L372.571 322.815L372.218 309.713L379.504 309.465V322.567Z" fill="#FFA8A7"/>
<path d="M404.544 216.087C404.544 222.981 403.532 278.532 403.532 278.532C403.685 280.518 405.442 284.185 405.088 291.816C404.563 302.177 403.866 329.413 403.866 329.413C402.674 330.022 401.359 330.353 400.021 330.38C398.682 330.406 397.355 330.128 396.14 329.565C396.14 329.565 390.506 291.367 389.265 281.139C388.176 272.172 385.387 242.491 385.387 242.491L381.634 277.577C382.43 281.342 382.719 285.195 382.494 289.037C382.169 293.811 379.935 318.526 379.935 318.526C378.735 319.234 377.39 319.659 376.002 319.77C374.614 319.881 373.219 319.674 371.922 319.166C371.922 319.166 367.969 281.922 367.892 277.548C367.797 272.582 370.203 216.029 370.203 216.029L404.544 216.087Z" fill="#37474F"/>
<path d="M396.627 332.028V330.997C395.958 331.293 394.421 337.424 391.661 340.04C389.474 342.122 386.495 344.519 385.731 346.84C384.967 349.16 389.885 350.583 391.938 350.211C394.306 349.771 398.432 348.024 399.463 346.391C400.495 344.758 400.982 342.39 401.822 341.205C402.662 340.021 404.601 338.703 405.05 337.328C405.19 336.042 405.056 334.74 404.658 333.508C404.334 332.229 403.99 330.825 403.57 330.949V331.732C402.591 332.536 401.36 332.968 400.093 332.955C399.081 333.04 396.617 332.83 396.627 332.028Z" fill="#263238"/>
<path d="M372.495 320.579C372.132 320.579 371.836 321.124 371.044 322.021C369.865 323.261 368.487 324.294 366.966 325.077C364.368 326.433 359.326 328.515 357.025 329.594C355.592 330.263 355.659 332.058 357.139 333.08C358.62 334.102 362.182 334.837 366.46 333.844C368.79 333.3 371.827 331.055 373.756 331.18C375.685 331.304 379.266 331.265 380.689 330.225C382.112 329.184 381.539 327.025 381.138 325.163C380.698 323.12 380.183 319.94 379.505 320.083V320.799C378.674 322.117 374.367 322.652 372.533 321.687L372.495 320.579Z" fill="#263238"/>
<path d="M385.387 242.49C381.776 241.308 378.474 239.334 375.723 236.713C375.723 236.713 377.633 240.351 383.134 243.741L381.95 275.074L385.387 242.49Z" fill="#263238"/>
<path d="M400.667 177.611C400.667 177.611 406.397 178.929 405.986 189.281L404.792 205.754V230.488C399.693 236.275 377.098 235.855 369.315 230.03C369.315 230.03 370.194 200.76 370.719 189.491C371.092 181.489 372.935 177.459 380.804 176.58L390.477 177L400.667 177.611Z" fill="#00ADB5"/>
<path d="M393.37 156.107C393.403 157.493 393.162 158.872 392.659 160.164C392.157 161.456 391.404 162.636 390.443 163.635C389.483 164.635 388.334 165.434 387.063 165.988C385.792 166.541 384.424 166.838 383.038 166.86C377.308 166.86 373.946 161.913 372.705 156.107C370.413 145.478 377.327 145.345 383.038 145.345C385.835 145.402 388.495 146.569 390.432 148.587C392.37 150.605 393.427 153.31 393.37 156.107Z" fill="#263238"/>
<path d="M398.642 160.45C398.642 160.45 397.057 168.205 396.417 169.484C396.015 170.254 395.331 170.839 394.507 171.117L394.622 165.664L398.642 160.45Z" fill="#263238"/>
<path d="M396.646 149.347C396.646 149.347 397.783 149.06 398.996 150.951C400.027 152.565 400.266 156.194 398.642 160.501L395.653 160.863L396.646 149.347Z" fill="#263238"/>
<path d="M397.745 150.919L401.412 150.986C401.437 150.749 401.413 150.509 401.341 150.282C401.269 150.055 401.151 149.845 400.994 149.666C400.837 149.486 400.644 149.341 400.429 149.24C400.213 149.139 399.979 149.083 399.741 149.076C399.239 149.083 398.758 149.276 398.39 149.616C398.021 149.956 397.792 150.42 397.745 150.919Z" fill="#263238"/>
<path d="M398.193 150.052L400.905 147.445C400.748 147.261 400.556 147.111 400.338 147.005C400.121 146.899 399.885 146.839 399.643 146.83C399.402 146.82 399.161 146.86 398.936 146.948C398.711 147.036 398.507 147.169 398.336 147.34C397.976 147.692 397.762 148.166 397.735 148.668C397.709 149.171 397.872 149.665 398.193 150.052Z" fill="#263238"/>
<path d="M394.756 160.813C395.357 161.185 396.207 159.991 396.952 159.18C397.697 158.368 400.008 157.623 401.211 160.259C402.414 162.894 400.361 165.501 398.642 166.361C395.558 167.889 394.584 165.664 394.584 165.664L394.326 177.945C389.99 184.629 380.154 184.419 383.697 177.62V173.886C382.24 174.128 380.76 174.205 379.285 174.115C376.879 173.733 375.37 171.756 374.634 169.044C373.469 164.69 373.021 161.175 374.014 152.609C375.102 143.232 385.588 143.127 391.203 146.88C396.818 150.633 394.756 160.813 394.756 160.813Z" fill="#FFA8A7"/>
<path d="M381.691 151.15C384.193 150.901 386.666 150.386 389.178 150.195C389.72 150.129 390.268 150.155 390.802 150.271C392.711 150.796 392.482 153.031 392.788 154.588C393.313 157.281 393.743 161.836 394.755 161.855C395.061 161.855 396.207 159.878 396.951 159.171C397.361 158.563 397.592 157.851 397.62 157.118C397.811 156.01 397.906 154.874 397.992 153.747C398.069 152.792 398.164 151.837 398.164 150.882C398.208 149.803 398.121 148.723 397.906 147.664C397.667 146.763 397.208 145.937 396.569 145.257L396.379 145.047C395.12 143.731 393.592 142.702 391.9 142.03C389.465 141.117 386.911 140.561 384.317 140.378C381.727 140.194 379.148 139.875 376.592 139.423C376.445 139.38 376.289 139.38 376.143 139.423C376.039 139.48 375.951 139.563 375.888 139.663C375.825 139.763 375.787 139.877 375.78 139.996C375.675 140.589 375.741 141.2 375.969 141.758C376.197 142.315 376.578 142.797 377.069 143.147C375.341 143.281 373.354 142.383 371.693 141.925C371.558 141.868 371.414 141.838 371.268 141.838C371.122 141.838 370.977 141.868 370.843 141.925C370.676 142.041 370.557 142.214 370.508 142.412C370.388 142.86 370.371 143.331 370.461 143.787C370.613 145.169 371.127 146.487 371.95 147.607C373.238 149.282 375.056 150.471 377.107 150.978C378.617 151.269 380.163 151.327 381.691 151.15Z" fill="#263238"/>
<path d="M383.707 173.886C383.707 173.886 389.074 172.759 390.946 171.718C392.061 171.108 392.966 170.176 393.543 169.044C393.261 170.181 392.758 171.252 392.063 172.195C390.697 174.029 383.707 175.366 383.707 175.366V173.886Z" fill="#F28F8F"/>
<path d="M384.996 159.409C384.985 159.704 385.092 159.991 385.292 160.207C385.493 160.424 385.771 160.552 386.065 160.564C386.299 160.584 386.534 160.532 386.738 160.416C386.942 160.299 387.106 160.124 387.208 159.913C387.311 159.702 387.348 159.465 387.313 159.233C387.279 159.001 387.175 158.784 387.016 158.612C386.856 158.44 386.649 158.32 386.42 158.267C386.191 158.215 385.952 158.233 385.733 158.32C385.515 158.406 385.328 158.556 385.196 158.75C385.064 158.945 384.995 159.174 384.996 159.409Z" fill="#263238"/>
<path d="M386.715 154.778L389.016 156.105C389.184 155.778 389.222 155.4 389.123 155.046C389.024 154.692 388.795 154.388 388.482 154.195C388.329 154.11 388.16 154.057 387.986 154.04C387.812 154.023 387.636 154.043 387.47 154.098C387.304 154.152 387.151 154.241 387.021 154.358C386.891 154.475 386.787 154.618 386.715 154.778Z" fill="#263238"/>
<path d="M384.184 167.152L381.73 168.107C381.779 168.276 381.863 168.432 381.975 168.567C382.087 168.701 382.226 168.812 382.383 168.89C382.54 168.969 382.711 169.015 382.886 169.025C383.061 169.035 383.237 169.008 383.401 168.948C383.735 168.804 384.002 168.538 384.148 168.205C384.293 167.871 384.306 167.495 384.184 167.152Z" fill="#F28F8F"/>
<path d="M375.121 155.761L377.222 154.081C377.128 153.934 377.004 153.809 376.859 153.713C376.713 153.618 376.548 153.554 376.376 153.526C376.204 153.498 376.028 153.506 375.86 153.551C375.691 153.596 375.534 153.675 375.398 153.785C375.118 154.023 374.934 154.356 374.883 154.72C374.832 155.085 374.917 155.455 375.121 155.761Z" fill="#263238"/>
<path d="M376.048 159.094C376.065 159.303 376.142 159.502 376.27 159.668C376.398 159.834 376.572 159.959 376.77 160.027C376.968 160.096 377.182 160.106 377.385 160.055C377.589 160.004 377.773 159.895 377.915 159.741C378.058 159.587 378.152 159.395 378.187 159.189C378.223 158.982 378.197 158.77 378.113 158.577C378.03 158.385 377.892 158.221 377.717 158.106C377.542 157.991 377.337 157.929 377.127 157.929C376.979 157.934 376.834 157.968 376.7 158.029C376.566 158.09 376.445 158.178 376.344 158.286C376.244 158.395 376.166 158.522 376.115 158.66C376.064 158.799 376.042 158.946 376.048 159.094Z" fill="#263238"/>
<path d="M381.806 158.198L381.682 164.988L377.824 164.109L381.806 158.198Z" fill="#F28F8F"/>
<path d="M290.186 215.066L296.174 211.609L298.542 208.734L292.564 212.191L290.186 215.066Z" fill="#00ADB5"/>
<path opacity="0.4" d="M290.186 215.066L296.174 211.609L298.542 208.734L292.564 212.191L290.186 215.066Z" fill="black"/>
<path d="M306.469 224.461L312.456 221.004L317.451 216.582L311.473 220.029L306.469 224.461Z" fill="#00ADB5"/>
<path opacity="0.4" d="M306.469 224.461L312.456 221.004L317.451 216.582L311.473 220.029L306.469 224.461Z" fill="black"/>
<path d="M357.331 236.391C358.747 238.289 359.604 240.545 359.804 242.904C358.395 241.003 357.539 238.749 357.331 236.391ZM371.245 236.572C369.23 222.869 361.867 209.318 353.1 204.247C348.889 201.812 344.993 201.726 341.87 203.55L336.236 206.797L335.921 206.988C335.67 207.126 335.427 207.279 335.195 207.446C334.732 207.765 334.297 208.122 333.896 208.516L333.705 208.697C333.533 208.869 333.352 209.069 333.189 209.26C333.027 209.451 332.779 209.747 332.588 210.005C332.182 210.539 331.815 211.1 331.49 211.686C331.318 211.982 331.155 212.297 331.003 212.641L281.793 184.24L275.815 187.688V191.508L276.321 191.794L276.799 192.071V192.835L275.844 193.398V195.614L283.073 210.893L290.216 215.028L292.594 212.164L298.897 215.936L302.516 222.133L306.508 224.435L311.502 220.004L317.633 223.547L319.696 232.055L330 238.014C330.509 240.18 331.147 242.313 331.91 244.403C331.977 244.613 332.063 244.833 332.148 245.072C335.567 254.048 341.001 261.736 347.132 265.279C347.867 265.715 348.637 266.088 349.433 266.396C349.855 266.564 350.285 266.707 350.723 266.826C351.105 266.928 351.487 267.014 351.869 267.084C353.075 267.304 354.311 267.304 355.517 267.084L356.013 266.96C356.251 266.912 356.484 266.845 356.71 266.759L357.245 266.549C357.434 266.481 357.617 266.394 357.789 266.291C357.966 266.215 358.138 266.129 358.305 266.033L358.553 265.88C358.598 265.866 358.64 265.843 358.678 265.814C360.043 265.031 363.405 263.082 364.321 262.567C368.867 259.931 371.808 253.265 371.808 243.84C371.801 241.407 371.612 238.978 371.245 236.572Z" fill="#00ADB5"/>
<path d="M355.583 247.954C353.214 246.588 351.304 242.539 351.304 238.91C351.304 235.281 353.214 233.438 355.583 234.794C357.951 236.15 359.851 240.209 359.851 243.847C359.851 247.486 357.941 249.319 355.583 247.954ZM365.257 240.018C363.251 226.324 355.888 212.763 347.112 207.702C343.044 205.352 339.281 205.181 336.226 206.794L335.91 206.985C335.659 207.124 335.417 207.277 335.185 207.444C334.722 207.762 334.287 208.12 333.886 208.513L333.695 208.695C333.523 208.867 333.341 209.067 333.179 209.258C333.017 209.449 332.769 209.745 332.578 210.003C332.172 210.537 331.805 211.098 331.479 211.684C331.307 211.98 331.145 212.295 330.992 212.639C330.102 214.485 329.46 216.44 329.082 218.455L275.805 187.686V191.505L276.311 191.792L276.788 192.069V192.833L275.833 193.396V195.612L283.062 210.891L290.206 215.026L292.583 212.161L298.886 215.933L302.506 222.131L306.497 224.433L311.492 220.002L317.623 223.545L319.685 232.053L329.999 238.012C330.508 240.178 331.146 242.311 331.909 244.401C331.976 244.611 332.062 244.831 332.148 245.07C335.567 254.046 341 261.734 347.131 265.277C347.866 265.712 348.636 266.086 349.433 266.394C349.854 266.561 350.284 266.705 350.722 266.824C351.104 266.926 351.486 267.012 351.868 267.082C353.074 267.301 354.31 267.301 355.516 267.082L356.012 266.957C356.25 266.91 356.483 266.843 356.71 266.757L357.244 266.547C357.434 266.478 357.616 266.392 357.789 266.289C357.965 266.213 358.137 266.127 358.304 266.031L358.553 265.878C358.598 265.864 358.64 265.841 358.677 265.811C363.031 263.061 365.83 256.491 365.83 247.295C365.813 244.858 365.622 242.427 365.257 240.018Z" fill="#00ADB5"/>
<path opacity="0.4" d="M359.851 243.842C359.851 247.48 357.941 249.323 355.582 247.958C353.224 246.592 351.304 242.553 351.304 238.914C351.304 235.276 353.214 233.433 355.582 234.798C356.264 235.213 356.858 235.758 357.33 236.403C357.535 238.761 358.392 241.016 359.803 242.915C359.838 243.223 359.854 243.532 359.851 243.842Z" fill="black"/>
<path opacity="0.4" d="M371.788 243.83C371.788 253.255 368.847 259.921 364.301 262.557C363.346 263.072 360.023 265.021 358.657 265.804C363.012 263.053 365.81 256.483 365.81 247.287C365.8 244.854 365.615 242.426 365.256 240.02C363.251 226.325 355.888 212.765 347.112 207.703C343.044 205.354 339.281 205.182 336.225 206.796L341.859 203.549C344.982 201.725 348.878 201.811 353.09 204.246C361.866 209.317 369.229 222.868 371.234 236.572C371.598 238.974 371.783 241.4 371.788 243.83Z" fill="white"/>
<path d="M365.81 247.265C365.81 256.462 363.012 263.032 358.658 265.782C360.023 264.999 363.385 263.051 364.302 262.535C368.847 259.899 371.789 253.234 371.789 243.808C371.789 243.464 371.789 243.111 371.789 242.758L365.81 246.215C365.801 246.587 365.81 246.931 365.81 247.265Z" fill="#00ADB5"/>
<path opacity="0.1" d="M365.81 247.265C365.81 256.462 363.012 263.032 358.658 265.782C360.023 264.999 363.385 263.051 364.302 262.535C368.847 259.899 371.789 253.234 371.789 243.808C371.789 243.464 371.789 243.111 371.789 242.758L365.81 246.215C365.801 246.587 365.81 246.931 365.81 247.265Z" fill="black"/>
<path opacity="0.15" d="M329.312 222.363V224.302L275.815 193.418L276.799 192.845V192.043L329.312 222.363Z" fill="black"/>
<path opacity="0.15" d="M329.312 223.166V224.302L275.815 193.418L276.799 192.845V192.836L329.312 223.166Z" fill="black"/>
<path opacity="0.15" d="M352.574 262.547C350.547 262.495 348.57 261.905 346.845 260.838C338.126 255.805 331.03 240.831 331.03 227.462C331.03 219.66 333.389 213.834 337.505 211.457C340.37 209.795 343.76 210.005 347.322 212.058C356.031 217.091 363.127 232.112 363.127 245.482C363.127 253.275 360.768 259.109 356.652 261.478C355.411 262.187 354.004 262.556 352.574 262.547ZM341.64 211.313C340.367 211.306 339.115 211.636 338.011 212.268C334.258 214.436 332.014 220.118 332.014 227.452C332.014 240.516 338.89 255.146 347.351 259.998C350.588 261.907 353.653 262.079 356.203 260.609C359.956 258.441 362.2 252.768 362.2 245.434C362.2 232.361 355.325 217.74 346.873 212.879C345.294 211.918 343.488 211.391 341.64 211.351V211.313Z" fill="black"/>
<path opacity="0.4" d="M330.954 212.62C330.064 214.465 329.422 216.421 329.044 218.435L275.767 187.666L281.745 184.219L330.954 212.62Z" fill="white"/>
<path d="M400.199 215.61C402.987 210.329 406.177 198.468 407.762 192.481C410.016 183.982 406.368 178.634 402.223 178.414C399.635 178.815 391.107 209.823 391.107 209.823C390.153 210.577 377.194 217.157 373.03 218.809C372.285 219.091 371.464 219.091 370.719 218.809C368.723 218.083 367.357 218.217 365.4 218.026C363.862 217.873 363.089 217.329 362.888 217.654C362.706 218.057 362.683 218.513 362.822 218.933C362.962 219.353 363.255 219.704 363.643 219.917C364.486 220.408 365.383 220.799 366.317 221.082C364.643 221.59 362.898 221.825 361.15 221.779C357.139 221.693 355.697 223.431 358.81 227.509C360.72 230.049 363.881 230.851 370.939 228.416C372.963 227.71 375.713 226.344 378.282 225.418C383.573 223.508 384.967 223.278 388.997 221.913C394.87 219.927 398.957 217.959 400.199 215.61Z" fill="#FFA8A7"/>
<path d="M400.667 177.61C403.102 177.945 405.442 178.489 406.884 180.475C408.326 182.462 409.481 185.25 408.068 192.842C406.986 198.181 405.537 203.44 403.733 208.58C403.733 208.58 398.06 211.006 392.034 204.856L396.179 188.831C396.179 188.831 396.847 178.413 400.667 177.61Z" fill="#455A64"/>
</svg>
