<svg width="51" height="51" viewBox="0 0 51 51" fill="none" xmlns="http://www.w3.org/2000/svg">
<path fill-rule="evenodd" clip-rule="evenodd" d="M25.65 50.966C11.7423 50.9585 0.0582916 40.595 0 25.4978C0.0582916 10.3715 12.3475 0 25.6797 0C40.9224 0 50.9217 13.6679 50.9217 25.4973C50.9217 29.5235 50.9217 29.6835 49.5799 33.5416L19.51 33.5565C18.795 33.5491 18.219 32.7907 18.219 32.0758C18.219 31.3608 18.8099 30.9596 19.5174 30.9596L25.6363 30.9013V30.2012H15.593C14.8781 30.2012 14.302 29.6252 14.302 28.9102C14.302 28.1953 14.8929 27.6341 15.6004 27.6341H25.6357L25.6283 26.7808H14.3386C13.6237 26.7734 13.0476 26.1973 13.0476 25.4824C13.0476 24.7675 13.6311 24.1914 14.3386 24.1914H25.6357V23.3307H16.9274C16.2125 23.3233 15.6364 22.7472 15.6364 22.0323C15.6364 21.3173 16.2274 20.7779 16.9274 20.7921H32.1484V19.8818H26.8753C26.1895 19.8743 25.6283 19.2983 25.6283 18.5833C25.6283 17.8684 26.2918 17.3215 26.8753 17.3215L32.0901 17.3066C35.9631 17.3066 38.5736 20.7927 38.5736 23.3307H40.6521C40.1343 16.7665 34.2635 10.3704 25.6792 10.3778C15.6513 10.3715 10.5822 18.6565 10.6114 25.4978C10.5822 33.5571 17.1246 40.427 25.3368 40.595C25.3368 38.0644 27.948 34.5778 31.8204 34.5778L37.0352 34.5926C37.6187 34.5926 38.2821 35.1395 38.2821 35.8545C38.2821 36.5694 37.7204 37.1455 37.0352 37.1529H31.7621V38.0645H47.0996C47.7997 38.0496 48.3906 38.5897 48.3906 39.3046C48.3906 40.0195 47.8145 40.5956 47.0996 40.603H38.2747V41.4637H49.689C50.3965 41.4637 50.98 42.0398 50.98 42.7547C50.98 43.4697 50.4039 44.0457 49.689 44.0532H38.2821L38.2747 44.9064H48.4272C49.1347 44.9064 49.7256 45.4682 49.7256 46.1825C49.7256 46.8975 49.1495 47.4736 48.4346 47.4736H38.2747V48.2902L44.5102 48.3485C45.2177 48.3485 45.8086 48.7497 45.8086 49.4646C45.8086 50.1796 45.2326 50.938 44.5176 50.9454L25.65 50.966Z" fill="#00ADB5"/>
</svg>
