<svg width="22" height="22" viewBox="0 0 22 22" fill="none" xmlns="http://www.w3.org/2000/svg">
<path d="M7.99005 21.8905L7.55224 18.388C7.31509 18.2968 7.09144 18.1874 6.8813 18.0597C6.67115 17.932 6.4661 17.7952 6.26617 17.6492L3.00995 19.0174L0 13.8184L2.81841 11.6841C2.80017 11.5564 2.79104 11.4331 2.79104 11.3141V10.5764C2.79104 10.4575 2.80017 10.3342 2.81841 10.2065L0 8.07213L3.00995 2.87313L6.26617 4.24129C6.46683 4.09535 6.67662 3.95854 6.89552 3.83084C7.11443 3.70315 7.33333 3.5937 7.55224 3.50249L7.99005 0H14.01L14.4478 3.50249C14.6849 3.5937 14.9086 3.70315 15.1187 3.83084C15.3289 3.95854 15.5339 4.09535 15.7338 4.24129L18.99 2.87313L22 8.07213L19.1816 10.2065C19.1998 10.3342 19.209 10.4575 19.209 10.5764V11.3141C19.209 11.4331 19.1907 11.5564 19.1542 11.6841L21.9726 13.8184L18.9627 19.0174L15.7338 17.6492C15.5332 17.7952 15.3234 17.932 15.1045 18.0597C14.8856 18.1874 14.6667 18.2968 14.4478 18.388L14.01 21.8905H7.99005ZM11.0547 14.7761C12.1128 14.7761 13.0158 14.4021 13.7637 13.6542C14.5116 12.9063 14.8856 12.0033 14.8856 10.9453C14.8856 9.88722 14.5116 8.98424 13.7637 8.23631C13.0158 7.48839 12.1128 7.11442 11.0547 7.11442C9.97844 7.11442 9.07071 7.48839 8.33154 8.23631C7.59237 8.98424 7.22315 9.88722 7.22388 10.9453C7.22388 12.0033 7.5931 12.9063 8.33154 13.6542C9.06998 14.4021 9.97771 14.7761 11.0547 14.7761Z" fill="#EEEEEE"/>
</svg>
